<svg xmlns="http://www.w3.org/2000/svg" width="488" height="488" fill="none" viewBox="0 0 488 488"><g filter="url(#filter0_d_740_32403)"><mask id="mask0_740_32403" width="480" height="480" x="4" y="0" maskUnits="userSpaceOnUse" style="mask-type:alpha"><circle cx="244" cy="240" r="240" fill="url(#paint0_linear_740_32403)"/></mask><g mask="url(#mask0_740_32403)"><circle cx="244" cy="240" r="240" fill="#31D8A4"/><circle cx="243.996" cy="240" r="208" fill="#fff"/></g><circle cx="243.999" cy="240" r="184" fill="#0E052F"/><circle cx="244" cy="240" r="184" fill="#111320"/><path fill="#fff" d="M294.03 132.415L142.448 349.577H188.987L341.353 132.415H294.03Z"/><path fill="url(#paint1_linear_740_32403)" d="M193.834 132.415L238.434 196.406L215.165 231.31L146.326 132.415H193.834Z"/><path fill="url(#paint2_linear_740_32403)" d="M298.547 349.596L249.1 278.819L272.369 244.884L345.086 349.596H298.547Z"/></g><defs><filter id="filter0_d_740_32403" width="488" height="488" x="0" y="0" color-interpolation-filters="sRGB" filterUnits="userSpaceOnUse"><feFlood flood-opacity="0" result="BackgroundImageFix"/><feColorMatrix in="SourceAlpha" result="hardAlpha" type="matrix" values="0 0 0 0 0 0 0 0 0 0 0 0 0 0 0 0 0 0 127 0"/><feOffset dy="4"/><feGaussianBlur stdDeviation="2"/><feComposite in2="hardAlpha" operator="out"/><feColorMatrix type="matrix" values="0 0 0 0 0 0 0 0 0 0 0 0 0 0 0 0 0 0 0.25 0"/><feBlend in2="BackgroundImageFix" mode="normal" result="effect1_dropShadow_740_32403"/><feBlend in="SourceGraphic" in2="effect1_dropShadow_740_32403" mode="normal" result="shape"/></filter><linearGradient id="paint0_linear_740_32403" x1="244" x2="244" y1="0" y2="701.818" gradientUnits="userSpaceOnUse"><stop stop-color="#08021E"/><stop offset="1" stop-color="#1F0777"/></linearGradient><linearGradient id="paint1_linear_740_32403" x1="183.169" x2="247.015" y1="145.989" y2="223.065" gradientUnits="userSpaceOnUse"><stop stop-color="#fff"/><stop offset="1" stop-color="#fff" stop-opacity=".55"/></linearGradient><linearGradient id="paint2_linear_740_32403" x1="309.213" x2="230.769" y1="333.114" y2="227.364" gradientUnits="userSpaceOnUse"><stop stop-color="#6966FF"/><stop offset="1" stop-color="#6966FF" stop-opacity=".36"/></linearGradient></defs></svg>