<svg xmlns="http://www.w3.org/2000/svg" width="480" height="480" fill="none" viewBox="0 0 480 480"><mask id="mask0_378_27052" width="480" height="480" x="0" y="0" maskUnits="userSpaceOnUse" style="mask-type:alpha"><circle cx="240" cy="240" r="240" fill="url(#paint0_linear_378_27052)"/></mask><g mask="url(#mask0_378_27052)"><circle cx="240" cy="240" r="240" fill="#31D8A4"/><circle cx="240" cy="240" r="208" fill="#fff"/></g><circle cx="240" cy="240" r="184" fill="#0E052F"/><circle cx="240" cy="240" r="184" fill="#fff"/><circle cx="240" cy="240" r="184" fill="#0E052F"/><path fill="url(#paint1_radial_378_27052)" d="M215.231 329.115C196.998 324.021 183.628 307.528 183.628 287.639C183.628 280.847 186.546 273.087 190.921 264.598C189.949 268.721 189.219 272.603 189.219 276.24C189.221 297.585 199.431 316.744 215.231 329.115ZM306.877 283.517C306.877 248.969 256.945 198.865 242.205 128.898C241.72 126.592 237.363 126.592 236.877 128.898C222.137 198.86 172.206 248.968 172.206 283.517C172.206 320.627 202.349 350.703 239.541 350.703C276.734 350.703 306.877 320.625 306.877 283.517Z"/><defs><linearGradient id="paint0_linear_378_27052" x1="240" x2="240" y1="0" y2="701.818" gradientUnits="userSpaceOnUse"><stop stop-color="#08021E"/><stop offset="1" stop-color="#1F0777"/></linearGradient><radialGradient id="paint1_radial_378_27052" cx="0" cy="0" r="1" gradientTransform="translate(239.541 242.73) rotate(-180) scale(81.5798 221.82)" gradientUnits="userSpaceOnUse"><stop stop-color="#8999BF"/><stop offset="1" stop-color="#43526A"/></radialGradient></defs></svg>